<?xml version="1.0" encoding="UTF-8"?>
<svg width="70px" height="70px" viewBox="0 0 70 70" version="1.1" xmlns="http://www.w3.org/2000/svg" xmlns:xlink="http://www.w3.org/1999/xlink">
    <!-- Generator: Sketch 59.1 (86144) - https://sketch.com -->
    <title>Dedicated support Copy</title>
    <desc>Created with Sketch.</desc>
    <g id="Dedicated-support-Copy" stroke="none" stroke-width="1" fill="none" fill-rule="evenodd">
        <path d="M32.4466098,6 C45.023952,6 55.2754267,15.9582224 55.7466345,28.4202676 C60.9155261,29.1450716 64.8932195,33.5849223 64.8932195,38.9538132 C64.8932195,44.8283911 60.1309332,49.5906774 54.2563553,49.5906774 L54.2563553,49.5906774 L48.6915248,49.5906774 L48.6915248,28.3169489 L53.7404949,28.3164551 C53.2180189,17.0079364 43.8842725,8 32.4466098,8 C21.008947,8 11.6752006,17.0079364 11.1527247,28.3164551 L16.2016947,28.3169489 L16.2016947,49.5906774 L11.1669412,49.5903296 C11.6778522,56.4144514 17.3765636,61.7923722 24.3313556,61.7923722 L24.3313556,61.7923722 L28.5022911,61.7920914 C28.9665461,59.4779473 31.010208,57.7347451 33.4610165,57.7347451 C36.2542668,57.7347451 38.5186436,59.9991219 38.5186436,62.7923722 C38.5186436,65.5856225 36.2542668,67.8499992 33.4610165,67.8499992 C31.010328,67.8499992 28.9667463,66.1069679 28.5023594,63.792993 L24.3313556,63.7923722 C16.2366936,63.7923722 9.61972501,57.4656142 9.15566536,49.4873136 C3.9824792,48.7678945 7.10542736e-15,44.3259328 7.10542736e-15,38.9538132 C7.10542736e-15,33.5848058 3.97786614,29.1448789 9.14719349,28.4204373 C9.61779282,15.9582224 19.8692676,6 32.4466098,6 Z M33.4610165,59.7347451 C31.8687636,59.7347451 30.5607725,60.9518146 30.4165853,62.5064115 L30.4166411,63.0789339 C30.5611097,64.6332435 31.8689689,65.8499992 33.4610165,65.8499992 C35.1496973,65.8499992 36.5186436,64.481053 36.5186436,62.7923722 C36.5186436,61.1036914 35.1496973,59.7347451 33.4610165,59.7347451 Z M14.2016947,30.3169489 L10.6368643,30.3169489 C5.86685585,30.3169489 2,34.1838047 2,38.9538132 C2,43.7238216 5.86685585,47.5906774 10.6368643,47.5906774 L14.2016947,47.5906774 L14.2016947,30.3169489 Z M54.2563553,30.3169489 L50.6915248,30.3169489 L50.6915248,47.5906774 L54.2563553,47.5906774 C59.0263637,47.5906774 62.8932195,43.7238216 62.8932195,38.9538132 C62.8932195,34.1838047 59.0263637,30.3169489 54.2563553,30.3169489 L54.2563553,30.3169489 Z M28.6304628,11.5420721 C31.6710558,10.9130463 34.3844153,10.9130463 36.7649516,11.5559206 C37.2981361,11.6999095 37.6136415,12.2488669 37.4696527,12.7820513 C37.3256639,13.3152358 36.7767065,13.6307412 36.243522,13.4867524 C34.1873951,12.9314862 31.7866294,12.9314862 29.0356354,13.5006009 C26.3736133,14.0513095 23.6990363,15.8127763 21.0208559,18.8231554 C20.6537627,19.2357824 20.0216746,19.2726949 19.6090476,18.9056017 C19.1964206,18.5385086 19.1595081,17.9064205 19.5266013,17.4937935 C22.4692612,14.1861291 25.5008979,12.189504 28.6304628,11.5420721 Z M39.6507,13.8221877 C39.8782657,13.3189658 40.4706862,13.0955022 40.9739081,13.323068 C41.5686718,13.5920304 42.0396616,13.9391593 42.3722798,14.376585 C42.7065693,14.8162087 42.621179,15.4435893 42.1815553,15.7778788 C41.7419316,16.1121683 41.114551,16.026778 40.7802616,15.5871543 L40.7802616,15.5871543 L40.7156699,15.512244 C40.5950863,15.3873534 40.4092855,15.2627306 40.1498198,15.1453957 C39.6465978,14.91783 39.4231343,14.3254096 39.6507,13.8221877 Z" id="Combined-Shape" fill="#434350" fill-rule="nonzero"></path>
    </g>
</svg>