<?xml version="1.0" encoding="UTF-8"?>
<svg width="70px" height="70px" viewBox="0 0 70 70" version="1.1" xmlns="http://www.w3.org/2000/svg" xmlns:xlink="http://www.w3.org/1999/xlink">
    <!-- Generator: Sketch 59.1 (86144) - https://sketch.com -->
    <title>Fiile format_library</title>
    <desc>Created with Sketch.</desc>
    <g id="Fiile-format_library" stroke="none" stroke-width="1" fill="none" fill-rule="evenodd">
        <g id="Group-71-Copy-3" transform="translate(9.000000, 3.000000)">
            <g id="Group-68" transform="translate(8.000000, 8.000000)" stroke="#434350" stroke-width="2">
                <g id="Group-63-Copy">
                    <path d="M13.945202,1 L1,13.1937535 L1,51.1290323 C1,53.3381713 2.790861,55.1290323 5,55.1290323 L38.5483871,55.1290323 C40.7575261,55.1290323 42.5483871,53.3381713 42.5483871,51.1290323 L42.5483871,5 C42.5483871,2.790861 40.7575261,1 38.5483871,1 L13.945202,1 Z" id="Rectangle-Copy-37" fill="#FFFFFF" fill-rule="nonzero"></path>
                    <path d="M13.5483871,1.93548387 L13.5483871,11.516129 C13.5483871,13.1729833 12.2052413,14.516129 10.5483871,14.516129 L0.967741935,14.516129 L0.967741935,14.516129" id="Rectangle"></path>
                </g>
            </g>
            <g id="Group-70" transform="translate(0.000000, 0.741935)">
                <g id="Group-63" stroke="#434350" stroke-width="2">
                    <path d="M13.945202,1.93548387 L1,14.1292373 L1,52.0645161 C1,54.2736551 2.790861,56.0645161 5,56.0645161 L38.5483871,56.0645161 C40.7575261,56.0645161 42.5483871,54.2736551 42.5483871,52.0645161 L42.5483871,5.93548387 C42.5483871,3.72634487 40.7575261,1.93548387 38.5483871,1.93548387 L13.945202,1.93548387 Z" id="Rectangle-Copy-37" fill="#FFFFFF" fill-rule="nonzero"></path>
                    <path d="M13.5483871,2.87096774 L13.5483871,12.4516129 C13.5483871,14.1084672 12.2052413,15.4516129 10.5483871,15.4516129 L0.967741935,15.4516129 L0.967741935,15.4516129" id="Rectangle"></path>
                </g>
                <path d="M20.4193548,17.3870968 L42.5806452,17.3870968 L42.5806452,17.3870968 L42.5806452,40.6129032 L20.4193548,40.6129032 C18.7625006,40.6129032 17.4193548,39.2697575 17.4193548,37.6129032 L17.4193548,20.3870968 C17.4193548,18.7302425 18.7625006,17.3870968 20.4193548,17.3870968 Z" id="Rectangle" stroke="#434350" stroke-width="2" fill-rule="nonzero"></path>
                <polygon id="Path" fill="#434350" fill-rule="nonzero" points="32.8851906 34.9857246 34.7907592 34.965851 38.2258065 23.765936 36.1529324 23.765936 33.8053218 31.2007468 31.3010181 23.4017773 29.4063908 23.3872993 26.8188319 31.1014688 24.7638227 23.765936 22.7419355 23.765936 25.7464387 34.9304689 27.6573363 35.0002026 30.3306616 27.030342"></polygon>
            </g>
        </g>
    </g>
</svg>